<mxfile host="app.diagrams.net" agent="Mozilla/5.0 (Windows NT 10.0; Win64; x64) AppleWebKit/537.36 (KHTML, like Gecko) Chrome/139.0.0.0 Safari/537.36" version="28.2.3">
  <diagram name="หน้า-1" id="E3tviqcS6NApe1EkR0Dk">
    <mxGraphModel dx="1971" dy="917" grid="1" gridSize="10" guides="1" tooltips="1" connect="1" arrows="1" fold="1" page="1" pageScale="1" pageWidth="827" pageHeight="1169" math="0" shadow="0">
      <root>
        <mxCell id="0" />
        <mxCell id="1" parent="0" />
        <mxCell id="xmdnIYOiQf0DVH9pQNIo-32" value="" style="edgeStyle=orthogonalEdgeStyle;rounded=0;orthogonalLoop=1;jettySize=auto;html=1;" edge="1" parent="1" source="xmdnIYOiQf0DVH9pQNIo-2" target="xmdnIYOiQf0DVH9pQNIo-3">
          <mxGeometry relative="1" as="geometry" />
        </mxCell>
        <mxCell id="xmdnIYOiQf0DVH9pQNIo-2" value="start" style="ellipse;whiteSpace=wrap;html=1;" vertex="1" parent="1">
          <mxGeometry x="340" y="30" width="120" height="80" as="geometry" />
        </mxCell>
        <mxCell id="xmdnIYOiQf0DVH9pQNIo-7" value="" style="edgeStyle=orthogonalEdgeStyle;rounded=0;orthogonalLoop=1;jettySize=auto;html=1;" edge="1" parent="1" source="xmdnIYOiQf0DVH9pQNIo-3" target="xmdnIYOiQf0DVH9pQNIo-6">
          <mxGeometry relative="1" as="geometry" />
        </mxCell>
        <mxCell id="xmdnIYOiQf0DVH9pQNIo-3" value="Enter anumber : n" style="shape=parallelogram;perimeter=parallelogramPerimeter;whiteSpace=wrap;html=1;fixedSize=1;" vertex="1" parent="1">
          <mxGeometry x="300" y="130" width="200" height="60" as="geometry" />
        </mxCell>
        <mxCell id="xmdnIYOiQf0DVH9pQNIo-9" value="" style="edgeStyle=orthogonalEdgeStyle;rounded=0;orthogonalLoop=1;jettySize=auto;html=1;" edge="1" parent="1" source="xmdnIYOiQf0DVH9pQNIo-6" target="xmdnIYOiQf0DVH9pQNIo-8">
          <mxGeometry relative="1" as="geometry" />
        </mxCell>
        <mxCell id="xmdnIYOiQf0DVH9pQNIo-6" value="temp= n&lt;div&gt;sum= 0&lt;/div&gt;&lt;div&gt;count= 0&lt;/div&gt;" style="whiteSpace=wrap;html=1;" vertex="1" parent="1">
          <mxGeometry x="340" y="220" width="120" height="60" as="geometry" />
        </mxCell>
        <mxCell id="xmdnIYOiQf0DVH9pQNIo-11" value="" style="edgeStyle=orthogonalEdgeStyle;rounded=0;orthogonalLoop=1;jettySize=auto;html=1;" edge="1" parent="1" source="xmdnIYOiQf0DVH9pQNIo-8" target="xmdnIYOiQf0DVH9pQNIo-10">
          <mxGeometry relative="1" as="geometry" />
        </mxCell>
        <mxCell id="xmdnIYOiQf0DVH9pQNIo-31" style="edgeStyle=orthogonalEdgeStyle;rounded=0;orthogonalLoop=1;jettySize=auto;html=1;" edge="1" parent="1" source="xmdnIYOiQf0DVH9pQNIo-8" target="xmdnIYOiQf0DVH9pQNIo-12">
          <mxGeometry relative="1" as="geometry">
            <Array as="points">
              <mxPoint x="200" y="370" />
            </Array>
          </mxGeometry>
        </mxCell>
        <mxCell id="xmdnIYOiQf0DVH9pQNIo-38" style="edgeStyle=orthogonalEdgeStyle;rounded=0;orthogonalLoop=1;jettySize=auto;html=1;entryX=0;entryY=0.5;entryDx=0;entryDy=0;" edge="1" parent="1" source="xmdnIYOiQf0DVH9pQNIo-8" target="xmdnIYOiQf0DVH9pQNIo-6">
          <mxGeometry relative="1" as="geometry">
            <Array as="points">
              <mxPoint x="240" y="330" />
              <mxPoint x="240" y="250" />
            </Array>
          </mxGeometry>
        </mxCell>
        <mxCell id="xmdnIYOiQf0DVH9pQNIo-8" value="temp&amp;gt; 0" style="rhombus;whiteSpace=wrap;html=1;align=center;" vertex="1" parent="1">
          <mxGeometry x="360" y="310" width="80" height="80" as="geometry" />
        </mxCell>
        <mxCell id="xmdnIYOiQf0DVH9pQNIo-16" value="" style="edgeStyle=orthogonalEdgeStyle;rounded=0;orthogonalLoop=1;jettySize=auto;html=1;" edge="1" parent="1" source="xmdnIYOiQf0DVH9pQNIo-10" target="xmdnIYOiQf0DVH9pQNIo-15">
          <mxGeometry relative="1" as="geometry" />
        </mxCell>
        <mxCell id="xmdnIYOiQf0DVH9pQNIo-10" value="&lt;div&gt;digit = temp % 10;&lt;/div&gt;&lt;div&gt;&amp;nbsp; &amp;nbsp; &amp;nbsp; &amp;nbsp; sum = sum + pow(digit, count);&lt;/div&gt;&lt;div&gt;&amp;nbsp; &amp;nbsp; &amp;nbsp; &amp;nbsp; temp = temp / 10&lt;/div&gt;" style="whiteSpace=wrap;html=1;" vertex="1" parent="1">
          <mxGeometry x="340" y="430" width="120" height="60" as="geometry" />
        </mxCell>
        <mxCell id="xmdnIYOiQf0DVH9pQNIo-14" value="" style="edgeStyle=orthogonalEdgeStyle;rounded=0;orthogonalLoop=1;jettySize=auto;html=1;" edge="1" parent="1" source="xmdnIYOiQf0DVH9pQNIo-12" target="xmdnIYOiQf0DVH9pQNIo-13">
          <mxGeometry relative="1" as="geometry" />
        </mxCell>
        <mxCell id="xmdnIYOiQf0DVH9pQNIo-12" value="digit = t1&lt;div&gt;temp = temp/1&lt;/div&gt;" style="rounded=0;whiteSpace=wrap;html=1;" vertex="1" parent="1">
          <mxGeometry x="140" y="440" width="120" height="60" as="geometry" />
        </mxCell>
        <mxCell id="xmdnIYOiQf0DVH9pQNIo-27" style="edgeStyle=orthogonalEdgeStyle;rounded=0;orthogonalLoop=1;jettySize=auto;html=1;exitX=1;exitY=0.5;exitDx=0;exitDy=0;entryX=0;entryY=0.5;entryDx=0;entryDy=0;" edge="1" parent="1" source="xmdnIYOiQf0DVH9pQNIo-13" target="xmdnIYOiQf0DVH9pQNIo-15">
          <mxGeometry relative="1" as="geometry" />
        </mxCell>
        <mxCell id="xmdnIYOiQf0DVH9pQNIo-13" value="sum = n" style="rhombus;whiteSpace=wrap;html=1;rounded=0;" vertex="1" parent="1">
          <mxGeometry x="160" y="520" width="80" height="80" as="geometry" />
        </mxCell>
        <mxCell id="xmdnIYOiQf0DVH9pQNIo-18" value="" style="edgeStyle=orthogonalEdgeStyle;rounded=0;orthogonalLoop=1;jettySize=auto;html=1;" edge="1" parent="1" source="xmdnIYOiQf0DVH9pQNIo-15" target="xmdnIYOiQf0DVH9pQNIo-17">
          <mxGeometry relative="1" as="geometry" />
        </mxCell>
        <mxCell id="xmdnIYOiQf0DVH9pQNIo-20" value="" style="edgeStyle=orthogonalEdgeStyle;rounded=0;orthogonalLoop=1;jettySize=auto;html=1;" edge="1" parent="1" source="xmdnIYOiQf0DVH9pQNIo-15" target="xmdnIYOiQf0DVH9pQNIo-19">
          <mxGeometry relative="1" as="geometry" />
        </mxCell>
        <mxCell id="xmdnIYOiQf0DVH9pQNIo-15" value="sum == n" style="rhombus;whiteSpace=wrap;html=1;" vertex="1" parent="1">
          <mxGeometry x="360" y="520" width="80" height="80" as="geometry" />
        </mxCell>
        <mxCell id="xmdnIYOiQf0DVH9pQNIo-25" style="edgeStyle=orthogonalEdgeStyle;rounded=0;orthogonalLoop=1;jettySize=auto;html=1;entryX=1;entryY=0.5;entryDx=0;entryDy=0;" edge="1" parent="1" source="xmdnIYOiQf0DVH9pQNIo-17" target="xmdnIYOiQf0DVH9pQNIo-19">
          <mxGeometry relative="1" as="geometry">
            <Array as="points">
              <mxPoint x="560" y="660" />
            </Array>
          </mxGeometry>
        </mxCell>
        <mxCell id="xmdnIYOiQf0DVH9pQNIo-17" value="PAss&lt;div&gt;Not Pass&lt;/div&gt;" style="rhombus;whiteSpace=wrap;html=1;" vertex="1" parent="1">
          <mxGeometry x="520" y="520" width="80" height="80" as="geometry" />
        </mxCell>
        <mxCell id="xmdnIYOiQf0DVH9pQNIo-22" value="" style="edgeStyle=orthogonalEdgeStyle;rounded=0;orthogonalLoop=1;jettySize=auto;html=1;" edge="1" parent="1" source="xmdnIYOiQf0DVH9pQNIo-19" target="xmdnIYOiQf0DVH9pQNIo-21">
          <mxGeometry relative="1" as="geometry" />
        </mxCell>
        <mxCell id="xmdnIYOiQf0DVH9pQNIo-19" value="isArmstrong" style="shape=parallelogram;perimeter=parallelogramPerimeter;whiteSpace=wrap;html=1;fixedSize=1;" vertex="1" parent="1">
          <mxGeometry x="320" y="630" width="160" height="60" as="geometry" />
        </mxCell>
        <mxCell id="xmdnIYOiQf0DVH9pQNIo-24" value="" style="edgeStyle=orthogonalEdgeStyle;rounded=0;orthogonalLoop=1;jettySize=auto;html=1;" edge="1" parent="1" source="xmdnIYOiQf0DVH9pQNIo-21" target="xmdnIYOiQf0DVH9pQNIo-23">
          <mxGeometry relative="1" as="geometry" />
        </mxCell>
        <mxCell id="xmdnIYOiQf0DVH9pQNIo-21" value="Pass" style="rhombus;whiteSpace=wrap;html=1;" vertex="1" parent="1">
          <mxGeometry x="360" y="730" width="80" height="80" as="geometry" />
        </mxCell>
        <mxCell id="xmdnIYOiQf0DVH9pQNIo-23" value="End" style="ellipse;whiteSpace=wrap;html=1;" vertex="1" parent="1">
          <mxGeometry x="340" y="850" width="120" height="80" as="geometry" />
        </mxCell>
        <mxCell id="xmdnIYOiQf0DVH9pQNIo-33" value="No" style="text;html=1;align=center;verticalAlign=middle;whiteSpace=wrap;rounded=0;" vertex="1" parent="1">
          <mxGeometry x="270" y="300" width="60" height="30" as="geometry" />
        </mxCell>
        <mxCell id="xmdnIYOiQf0DVH9pQNIo-34" value="Yes" style="text;html=1;align=center;verticalAlign=middle;resizable=0;points=[];autosize=1;strokeColor=none;fillColor=none;" vertex="1" parent="1">
          <mxGeometry x="460" y="530" width="40" height="30" as="geometry" />
        </mxCell>
        <mxCell id="xmdnIYOiQf0DVH9pQNIo-35" value="No" style="text;html=1;align=center;verticalAlign=middle;whiteSpace=wrap;rounded=0;" vertex="1" parent="1">
          <mxGeometry x="270" y="530" width="60" height="30" as="geometry" />
        </mxCell>
      </root>
    </mxGraphModel>
  </diagram>
</mxfile>
